<?xml version="1.0" standalone="no"?>
<!DOCTYPE svg PUBLIC "-//W3C//DTD SVG 20010904//EN"
 "http://www.w3.org/TR/2001/REC-SVG-20010904/DTD/svg10.dtd">
<svg version="1.0" xmlns="http://www.w3.org/2000/svg"
 width="379.000000pt" height="98.000000pt" viewBox="0 0 379.000000 98.000000"
 preserveAspectRatio="xMidYMid meet">

<g transform="translate(0.000000,98.000000) scale(0.100000,-0.100000)"
fill="#B1B2FF" stroke="none">
<path d="M2433 960 c-47 -15 -78 -35 -123 -76 -110 -102 -159 -249 -147 -434
23 -324 268 -502 547 -397 69 25 155 109 193 187 96 198 65 476 -69 620 -100
107 -258 146 -401 100z m182 -141 c97 -27 155 -145 155 -313 0 -110 -20 -192
-60 -250 -40 -59 -86 -79 -165 -74 -80 5 -122 35 -162 115 -27 56 -28 64 -28
203 0 138 1 148 27 201 33 66 63 96 115 114 47 17 67 18 118 4z"/>
<path d="M3299 967 c-136 -38 -244 -157 -285 -311 -18 -69 -18 -247 1 -319 33
-128 112 -224 227 -277 66 -31 82 -34 163 -34 96 0 165 21 212 66 l22 20 15
-36 c15 -37 16 -37 68 -34 l53 3 3 257 2 258 -185 0 -185 0 0 -75 0 -75 100 0
c97 0 100 -1 100 -22 -1 -85 -47 -170 -106 -194 -44 -18 -147 -18 -183 1 -43
22 -98 92 -122 154 -27 72 -30 211 -6 292 56 188 243 248 368 117 l49 -51 66
19 c37 11 69 24 71 31 6 16 -47 92 -93 133 -63 55 -138 83 -229 87 -45 1 -100
-3 -126 -10z"/>
<path d="M0 499 l0 -461 188 4 c226 6 292 23 374 97 100 89 140 189 141 351 3
257 -97 406 -304 455 -44 10 -117 15 -231 15 l-168 0 0 -461z m355 297 c63
-19 120 -75 142 -140 27 -78 24 -254 -6 -322 -41 -94 -99 -130 -226 -141 -53
-4 -79 -2 -90 7 -13 11 -15 55 -15 305 0 160 3 295 7 298 12 13 139 7 188 -7z"/>
<path d="M1023 952 c-11 -7 -323 -880 -323 -903 0 -5 40 -9 89 -9 l89 0 35
103 34 102 167 0 168 0 32 -100 32 -100 84 -3 c46 -2 87 1 91 5 8 8 -294 878
-313 900 -12 14 -164 18 -185 5z m153 -361 c30 -100 52 -187 48 -192 -3 -5
-54 -9 -115 -9 -97 0 -109 2 -109 18 0 9 17 73 38 142 22 69 45 149 52 178 7
29 17 51 22 50 6 -2 35 -86 64 -187z"/>
<path d="M1582 952 c-9 -7 -12 -105 -10 -458 l3 -449 290 0 290 0 3 69 c2 49
-1 72 -10 77 -7 5 -100 9 -205 9 l-193 0 -2 378 -3 377 -75 3 c-41 1 -81 -2
-88 -6z"/>
</g>
</svg>
