<svg xmlns="http://www.w3.org/2000/svg" x="0px" y="0px"
	 width="100%" viewBox="0 0 379 98" enable-background="new 0 0 379 98" xml:space="preserve">
<path fill="#FDFCFF" opacity="1.000000" stroke="none" 
	d="
M299.000000,99.000000 
	C199.333344,99.000000 100.166687,99.000000 1.000027,99.000000 
	C1.000018,66.333351 1.000018,33.666698 1.000009,1.000035 
	C127.333305,1.000024 253.666611,1.000024 379.999939,1.000012 
	C379.999939,33.666630 379.999939,66.333260 379.999969,98.999947 
	C353.166656,99.000000 326.333344,99.000000 299.000000,99.000000 
M75.621880,44.984409 
	C75.414726,43.166172 75.265633,41.339127 74.991272,39.531090 
	C72.710571,24.501631 65.814240,12.659905 50.842926,7.477426 
	C35.710636,2.239223 19.956734,5.134835 4.518289,4.382215 
	C4.518289,35.058887 4.518289,64.925392 4.518289,94.891273 
	C15.710131,94.891273 26.544437,95.326187 37.331085,94.794395 
	C55.799534,93.883896 68.122581,84.805504 72.923775,68.014313 
	C74.942535,60.954136 74.827988,53.283978 75.621880,44.984409 
M306.728546,79.687614 
	C312.479584,87.900177 319.944885,93.819794 329.872528,95.920959 
	C341.552338,98.392960 352.647400,97.200661 362.283600,88.788811 
	C363.027374,91.125229 363.614532,92.969612 364.151184,94.655441 
	C368.332733,94.655441 372.255829,94.655441 376.174194,94.655441 
	C376.174194,77.517357 376.174194,60.724964 376.174194,43.621609 
	C363.691315,43.621609 351.453735,43.621609 338.939423,43.621609 
	C338.939423,48.768848 338.939423,53.668583 338.939423,59.110641 
	C345.589478,59.110641 352.000671,59.110641 358.363342,59.110641 
	C359.286591,74.053322 350.961914,82.516533 337.124542,81.022728 
	C328.964508,80.141815 324.100128,74.789764 320.910126,67.783722 
	C316.679443,58.492054 316.454803,48.694595 318.478271,38.904697 
	C320.386810,29.670788 324.587738,21.830730 334.541840,19.099562 
	C344.395355,16.395983 351.680786,20.316442 357.232025,28.473665 
	C357.839508,29.366323 359.838287,30.037518 360.917542,29.756872 
	C365.344330,28.605751 369.664948,27.046326 374.415009,25.510975 
	C368.212128,13.441489 359.754364,4.923924 346.394073,3.109130 
	C331.408539,1.073570 318.258575,4.900258 308.597229,17.343979 
	C295.924866,33.665852 294.967896,60.475258 306.728546,79.687614 
M289.233856,21.378302 
	C280.637329,6.923673 267.758392,1.100452 251.322968,2.953714 
	C236.014664,4.679881 226.287064,13.780425 220.895233,27.639769 
	C215.520386,41.455479 215.546265,55.655689 220.018082,69.703041 
	C225.509109,86.951996 239.086136,96.946678 256.376465,96.989243 
	C273.667847,97.031807 287.455597,87.165901 292.925354,69.958809 
	C298.103912,53.667755 297.483429,37.518059 289.233856,21.378302 
M75.000633,94.961037 
	C80.810165,94.961037 86.619705,94.961037 92.598969,94.961037 
	C94.438744,89.229164 96.350403,83.758781 97.911880,78.190208 
	C98.622429,75.656219 99.776207,74.760788 102.418228,74.810928 
	C110.739754,74.968880 119.069313,74.999359 127.388969,74.798149 
	C130.292130,74.727936 131.434875,75.777191 132.186325,78.467651 
	C133.733734,84.007988 135.668442,89.440147 137.362503,94.666100 
	C143.912186,94.666100 149.955856,94.666100 156.469589,94.666100 
	C155.710464,92.368172 155.125488,90.490562 154.472488,88.636909 
	C146.303787,65.448448 138.140488,42.258053 129.936356,19.082119 
	C128.276016,14.391799 127.720001,7.885915 124.358040,5.610220 
	C120.761330,3.175624 114.437119,4.907500 109.325638,4.524241 
	C106.062599,4.279580 104.765297,5.622435 103.725487,8.625381 
	C95.518448,32.327202 87.078842,55.948372 78.798485,79.625031 
	C77.062660,84.588417 75.689491,89.678635 75.000633,94.961037 
M159.390167,7.975440 
	C159.390167,36.887291 159.390167,65.799141 159.390167,94.730682 
	C179.095322,94.730682 198.165741,94.730682 217.390900,94.730682 
	C217.390900,89.550095 217.390900,84.651184 217.390900,79.232941 
	C204.196503,79.232941 191.305939,79.232941 177.940765,79.232941 
	C177.940765,54.166946 177.940765,29.617033 177.940765,4.468523 
	C172.187515,4.468523 166.897583,4.362557 161.621490,4.584901 
	C160.846710,4.617552 160.137665,6.209785 159.390167,7.975440 
z"/>
<path fill="#611BEB" opacity="1.000000" stroke="none" 
	d="
M75.652557,45.437759 
	C74.827988,53.283978 74.942535,60.954136 72.923775,68.014313 
	C68.122581,84.805504 55.799534,93.883896 37.331085,94.794395 
	C26.544437,95.326187 15.710131,94.891273 4.518289,94.891273 
	C4.518289,64.925392 4.518289,35.058887 4.518289,4.382215 
	C19.956734,5.134835 35.710636,2.239223 50.842926,7.477426 
	C65.814240,12.659905 72.710571,24.501631 74.991272,39.531090 
	C75.265633,41.339127 75.414726,43.166172 75.652557,45.437759 
M22.659903,43.499947 
	C22.659903,55.390476 22.659903,67.281006 22.659903,79.294708 
	C26.947763,79.294708 30.434956,79.495766 33.892078,79.258583 
	C46.346889,78.404099 53.510498,72.781212 55.256180,60.393707 
	C56.368847,52.498142 55.820423,44.163063 54.683201,36.215889 
	C53.628086,28.842474 48.516792,23.537571 41.146122,21.769606 
	C35.314190,20.370731 29.183609,20.216932 22.659660,19.448256 
	C22.659660,27.930977 22.659660,35.215462 22.659903,43.499947 
z"/>
<path fill="#601AEB" opacity="1.000000" stroke="none" 
	d="
M306.511719,79.396675 
	C294.967896,60.475258 295.924866,33.665852 308.597229,17.343979 
	C318.258575,4.900258 331.408539,1.073570 346.394073,3.109130 
	C359.754364,4.923924 368.212128,13.441489 374.415009,25.510975 
	C369.664948,27.046326 365.344330,28.605751 360.917542,29.756872 
	C359.838287,30.037518 357.839508,29.366323 357.232025,28.473665 
	C351.680786,20.316442 344.395355,16.395983 334.541840,19.099562 
	C324.587738,21.830730 320.386810,29.670788 318.478271,38.904697 
	C316.454803,48.694595 316.679443,58.492054 320.910126,67.783722 
	C324.100128,74.789764 328.964508,80.141815 337.124542,81.022728 
	C350.961914,82.516533 359.286591,74.053322 358.363342,59.110641 
	C352.000671,59.110641 345.589478,59.110641 338.939423,59.110641 
	C338.939423,53.668583 338.939423,48.768848 338.939423,43.621609 
	C351.453735,43.621609 363.691315,43.621609 376.174194,43.621609 
	C376.174194,60.724964 376.174194,77.517357 376.174194,94.655441 
	C372.255829,94.655441 368.332733,94.655441 364.151184,94.655441 
	C363.614532,92.969612 363.027374,91.125229 362.283600,88.788811 
	C352.647400,97.200661 341.552338,98.392960 329.872528,95.920959 
	C319.944885,93.819794 312.479584,87.900177 306.511719,79.396675 
z"/>
<path fill="#601AEB" opacity="1.000000" stroke="none" 
	d="
M289.445312,21.682770 
	C297.483429,37.518059 298.103912,53.667755 292.925354,69.958809 
	C287.455597,87.165901 273.667847,97.031807 256.376465,96.989243 
	C239.086136,96.946678 225.509109,86.951996 220.018082,69.703041 
	C215.546265,55.655689 215.520386,41.455479 220.895233,27.639769 
	C226.287064,13.780425 236.014664,4.679881 251.322968,2.953714 
	C267.758392,1.100452 280.637329,6.923673 289.445312,21.682770 
M275.068237,34.627003 
	C274.347015,32.773533 273.762634,30.851980 272.880341,29.078653 
	C269.483246,22.250872 264.065338,18.243219 256.295563,18.328695 
	C248.745026,18.411762 243.168472,22.278423 240.220795,29.055353 
	C234.229599,42.829586 234.073532,56.914684 240.238281,70.633202 
	C244.391357,79.875122 253.749954,83.458183 262.696442,80.212166 
	C269.468414,77.755135 272.855896,72.283127 274.795258,65.926308 
	C277.865204,55.863628 277.917511,45.629902 275.068237,34.627003 
z"/>
<path fill="#601AEB" opacity="1.000000" stroke="none" 
	d="
M74.574921,94.835724 
	C75.689491,89.678635 77.062660,84.588417 78.798485,79.625031 
	C87.078842,55.948372 95.518448,32.327202 103.725487,8.625381 
	C104.765297,5.622435 106.062599,4.279580 109.325638,4.524241 
	C114.437119,4.907500 120.761330,3.175624 124.358040,5.610220 
	C127.720001,7.885915 128.276016,14.391799 129.936356,19.082119 
	C138.140488,42.258053 146.303787,65.448448 154.472488,88.636909 
	C155.125488,90.490562 155.710464,92.368172 156.469589,94.666100 
	C149.955856,94.666100 143.912186,94.666100 137.362503,94.666100 
	C135.668442,89.440147 133.733734,84.007988 132.186325,78.467651 
	C131.434875,75.777191 130.292130,74.727936 127.388969,74.798149 
	C119.069313,74.999359 110.739754,74.968880 102.418228,74.810928 
	C99.776207,74.760788 98.622429,75.656219 97.911880,78.190208 
	C96.350403,83.758781 94.438744,89.229164 92.598969,94.961037 
	C86.619705,94.961037 80.810165,94.961037 74.574921,94.835724 
M119.942268,38.545246 
	C118.411461,33.433189 116.880653,28.321133 114.961617,21.912598 
	C110.971313,35.401493 107.413315,47.429001 103.786201,59.690147 
	C111.412430,59.690147 118.605667,59.690147 126.247139,59.690147 
	C124.119949,52.640041 122.112564,45.987011 119.942268,38.545246 
z"/>
<path fill="#631EEC" opacity="1.000000" stroke="none" 
	d="
M159.394180,7.527928 
	C160.137665,6.209785 160.846710,4.617552 161.621490,4.584901 
	C166.897583,4.362557 172.187515,4.468523 177.940765,4.468523 
	C177.940765,29.617033 177.940765,54.166946 177.940765,79.232941 
	C191.305939,79.232941 204.196503,79.232941 217.390900,79.232941 
	C217.390900,84.651184 217.390900,89.550095 217.390900,94.730682 
	C198.165741,94.730682 179.095322,94.730682 159.390167,94.730682 
	C159.390167,65.799141 159.390167,36.887291 159.394180,7.527928 
z"/>
<path fill="#FEFDFF" opacity="1.000000" stroke="none" 
	d="
M22.659782,42.999947 
	C22.659660,35.215462 22.659660,27.930977 22.659660,19.448256 
	C29.183609,20.216932 35.314190,20.370731 41.146122,21.769606 
	C48.516792,23.537571 53.628086,28.842474 54.683201,36.215889 
	C55.820423,44.163063 56.368847,52.498142 55.256180,60.393707 
	C53.510498,72.781212 46.346889,78.404099 33.892078,79.258583 
	C30.434956,79.495766 26.947763,79.294708 22.659903,79.294708 
	C22.659903,67.281006 22.659903,55.390476 22.659782,42.999947 
z"/>
<path fill="#FDFDFF" opacity="1.000000" stroke="none" 
	d="
M275.166809,35.021637 
	C277.917511,45.629902 277.865204,55.863628 274.795258,65.926308 
	C272.855896,72.283127 269.468414,77.755135 262.696442,80.212166 
	C253.749954,83.458183 244.391357,79.875122 240.238281,70.633202 
	C234.073532,56.914684 234.229599,42.829586 240.220795,29.055353 
	C243.168472,22.278423 248.745026,18.411762 256.295563,18.328695 
	C264.065338,18.243219 269.483246,22.250872 272.880341,29.078653 
	C273.762634,30.851980 274.347015,32.773533 275.166809,35.021637 
z"/>
<path fill="#FBFAFF" opacity="1.000000" stroke="none" 
	d="
M120.023727,38.939613 
	C122.112564,45.987011 124.119949,52.640041 126.247139,59.690147 
	C118.605667,59.690147 111.412430,59.690147 103.786201,59.690147 
	C107.413315,47.429001 110.971313,35.401493 114.961617,21.912598 
	C116.880653,28.321133 118.411461,33.433189 120.023727,38.939613 
z"/>
</svg>